<?xml version="1.0" encoding="UTF-8" standalone="no"?>
<!-- Created with Inkscape (http://www.inkscape.org/) -->

<svg
   xmlns:dc="http://purl.org/dc/elements/1.1/"
   xmlns:cc="http://creativecommons.org/ns#"
   xmlns:rdf="http://www.w3.org/1999/02/22-rdf-syntax-ns#"
   xmlns:svg="http://www.w3.org/2000/svg"
   xmlns="http://www.w3.org/2000/svg"
   version="1.1"
   width="900"
   height="250"
   id="svg2"
   xml:space="preserve"><metadata
     id="metadata8"><rdf:RDF><cc:Work
         rdf:about=""><dc:format>image/svg+xml</dc:format><dc:type
           rdf:resource="http://purl.org/dc/dcmitype/StillImage" /><dc:title></dc:title></cc:Work></rdf:RDF></metadata><defs
     id="defs6"><clipPath
       id="clipPath16"><path
         d="M 0,200 720,200 720,0 0,0 0,200 z"
         id="path18" /></clipPath></defs><g
     transform="matrix(1.25,0,0,-1.25,0,250)"
     id="g10"><g
       id="g12"><g
         clip-path="url(#clipPath16)"
         id="g14"><g
           transform="translate(63.7012,122.0288)"
           id="g20"><path
             d="m 0,0 -40.188,0 0,-14.848 36.756,0 c 5.368,0 9.031,-0.935 10.988,-2.804 1.958,-1.87 2.936,-5.445 2.936,-10.724 l 0,-6.863 c 0,-5.279 -0.957,-8.853 -2.87,-10.723 -1.914,-1.87 -5.599,-2.805 -11.054,-2.805 l -34.842,0 c -5.455,0 -9.162,0.935 -11.12,2.805 -1.958,1.87 -2.936,5.444 -2.936,10.723 l 0,1.584 9.898,2.046 0,-8.513 43.224,0 0,16.101 -36.889,0 c -5.411,0 -9.085,0.936 -11.02,2.805 -1.936,1.87 -2.904,5.445 -2.904,10.723 l 0,5.412 c 0,5.235 0.968,8.81 2.904,10.723 1.935,1.914 5.609,2.871 11.02,2.871 l 31.873,0 C 1.1,8.513 4.773,7.589 6.797,5.741 8.82,3.894 9.832,0.638 9.832,-4.025 l 0,-1.386 L 0,-7.523 0,0 z"
             id="path22"
             style="fill:#ffffff;fill-opacity:1;fill-rule:nonzero;stroke:none" /></g><g
           transform="translate(152.0732,122.0288)"
           id="g24"><path
             d="m 0,0 -39.99,0 0,-40.122 39.99,0 0,13.66 10.822,-2.046 0,-6.731 c 0,-5.235 -0.979,-8.799 -2.936,-10.69 -1.958,-1.892 -5.664,-2.838 -11.12,-2.838 l -33.655,0 c -5.455,0 -9.139,0.913 -11.053,2.739 -1.913,1.826 -2.871,5.422 -2.871,10.789 l 0,30.158 c 0,5.323 0.968,8.919 2.904,10.789 1.935,1.87 5.609,2.805 11.02,2.805 l 33.655,0 c 5.456,0 9.162,-0.957 11.12,-2.871 1.957,-1.913 2.936,-5.488 2.936,-10.723 l 0,-5.412 L 0,-12.274 0,0 z"
             id="path26"
             style="fill:#ffffff;fill-opacity:1;fill-rule:nonzero;stroke:none" /></g><path
           d="m 199.795,73.262 -10.757,0 0,57.147 10.757,0 0,-57.147 z"
           id="path28"
           style="fill:#ffffff;fill-opacity:1;fill-rule:nonzero;stroke:none" /><path
           d="m 347.788,73.262 -10.756,0 0,57.147 10.756,0 0,-57.147 z"
           id="path30"
           style="fill:#ffffff;fill-opacity:1;fill-rule:nonzero;stroke:none" /><g
           transform="translate(404.9463,122.0288)"
           id="g32"><path
             d="m 0,0 0,-48.767 -10.756,0 0,48.767 -27.057,0 0,8.513 65.001,0 L 27.188,0 0,0 z"
             id="path34"
             style="fill:#ffffff;fill-opacity:1;fill-rule:nonzero;stroke:none" /></g><path
           d="m 446.069,114.242 29.432,0 0,-9.898 -29.432,0 0,9.898 z"
           id="path36"
           style="fill:#ffffff;fill-opacity:1;fill-rule:nonzero;stroke:none" /><g
           transform="translate(547.5293,98.1401)"
           id="g38"><path
             d="m 0,0 -31.214,0 0,-14.583 31.214,0 c 2.64,0 4.432,0.374 5.378,1.121 0.945,0.748 1.419,2.068 1.419,3.96 l 0,4.355 c 0,1.892 -0.474,3.223 -1.419,3.992 C 4.432,-0.385 2.64,0 0,0 m 0,22.965 -31.214,0 0,-13.528 31.214,0 c 2.419,0 4.069,0.308 4.949,0.924 0.88,0.616 1.32,1.671 1.32,3.167 l 0,5.411 c 0,1.496 -0.429,2.541 -1.288,3.135 C 4.124,22.668 2.463,22.965 0,22.965 m -44.939,-47.843 0,57.148 51.339,0 c 4.796,0 8.249,-0.87 10.361,-2.607 2.112,-1.738 3.168,-4.564 3.168,-8.48 l 0,-6.863 c 0,-2.595 -0.836,-4.729 -2.508,-6.401 -1.672,-1.672 -4.092,-2.794 -7.259,-3.365 3.212,-0.529 5.708,-1.749 7.49,-3.663 1.782,-1.913 2.672,-4.322 2.672,-7.226 l 0,-7.325 c 0,-3.739 -1.473,-6.544 -4.421,-8.413 -2.947,-1.87 -7.39,-2.805 -13.33,-2.805 l -47.512,0 z"
             id="path40"
             style="fill:#43bc7d;fill-opacity:1;fill-rule:nonzero;stroke:none" /></g><path
           d="m 595.471,130.41 13.857,0 0,-57.147 -13.857,0 0,57.147 z"
           id="path42"
           style="fill:#43bc7d;fill-opacity:1;fill-rule:nonzero;stroke:none" /><path
           d="m 651.386,84.216 46.062,0 0,35.701 -46.062,0 0,-35.701 z m -13.924,32.732 c 0,5.191 1.013,8.732 3.036,10.624 2.023,1.892 5.961,2.838 11.812,2.838 l 44.213,0 c 5.896,0 9.855,-0.946 11.857,-2.838 2.001,-1.892 2.991,-5.433 2.991,-10.624 l 0,-30.158 c 0,-5.235 -1.012,-8.799 -3.058,-10.69 -2.045,-1.892 -5.983,-2.838 -11.79,-2.838 l -44.213,0 c -5.851,0 -9.789,0.946 -11.812,2.838 -2.023,1.891 -3.036,5.455 -3.036,10.69 l 0,30.158 z"
           id="path44"
           style="fill:#43bc7d;fill-opacity:1;fill-rule:nonzero;stroke:none" /><g
           transform="translate(238.0605,187.9058)"
           id="g46"><path
             d="m 0,0 c -2.056,-42.858 6.694,-85.08 6.813,-127.865 0.013,-4.78 15.708,-1.82 15.691,4.204 C 22.387,-81.621 13.658,-40.09 15.678,2.008 15.983,8.375 0.246,5.13 0,0"
             id="path48"
             style="fill:#778e83;fill-opacity:1;fill-rule:nonzero;stroke:none" /></g><g
           transform="translate(260.583,79.9512)"
           id="g50"><path
             d="m 0,0 c 10.269,7.129 19.204,15.785 26.621,25.847 7.882,10.693 14.135,22.561 20.742,34.052 2.021,3.513 -1.786,6.557 -4.888,6.988 -4.099,0.569 -8.146,-1.35 -10.19,-4.906 C 20.433,41.369 9.427,21.512 -10.537,7.65 -13.405,5.66 -14.383,1.403 -11.277,-0.846 -7.892,-3.299 -3.166,-2.199 0,0"
             id="path52"
             style="fill:#778e83;fill-opacity:1;fill-rule:nonzero;stroke:none" /></g><g
           transform="translate(251.6475,76.5835)"
           id="g54"><path
             d="m 0,0 c 2.979,0.423 5.394,-1.374 7.73,-3.035 3.59,-2.552 7.229,-5.034 10.801,-7.611 7.694,-5.549 15.014,-11.606 22.206,-17.782 14.639,-12.57 28.594,-25.911 43.305,-38.399 4.059,-3.446 18.609,2.609 14.605,6.008 -16.079,13.65 -31.302,28.27 -47.404,41.895 C 43.175,-12.096 34.824,-5.585 26.046,0.31 22.599,2.625 19.44,5.307 15.642,7.053 11.513,8.951 6.654,8.827 2.271,8.205 -0.608,7.796 -5.774,6.377 -6.691,3.052 -7.62,-0.317 -1.795,-0.255 0,0"
             id="path56"
             style="fill:#778e83;fill-opacity:1;fill-rule:nonzero;stroke:none" /></g></g></g></g></svg>