<?xml version="1.0" encoding="UTF-8" standalone="no"?>
<!-- Created with Inkscape (http://www.inkscape.org/) -->

<svg
   xmlns:dc="http://purl.org/dc/elements/1.1/"
   xmlns:cc="http://creativecommons.org/ns#"
   xmlns:rdf="http://www.w3.org/1999/02/22-rdf-syntax-ns#"
   xmlns:svg="http://www.w3.org/2000/svg"
   xmlns="http://www.w3.org/2000/svg"
   xmlns:sodipodi="http://sodipodi.sourceforge.net/DTD/sodipodi-0.dtd"
   xmlns:inkscape="http://www.inkscape.org/namespaces/inkscape"
   id="svg2"
   version="1.1"
   inkscape:version="0.48.4 r9939"
   width="487.5"
   height="218.75"
   xml:space="preserve"
   sodipodi:docname="logo.pdf"><metadata
     id="metadata8"><rdf:RDF><cc:Work
         rdf:about=""><dc:format>image/svg+xml</dc:format><dc:type
           rdf:resource="http://purl.org/dc/dcmitype/StillImage" /><dc:title></dc:title></cc:Work></rdf:RDF></metadata><defs
     id="defs6"><clipPath
       clipPathUnits="userSpaceOnUse"
       id="clipPath16"><path
         d="M 0,175 390,175 390,0 0,0 0,175 z"
         id="path18" /></clipPath></defs><sodipodi:namedview
     pagecolor="#ffffff"
     bordercolor="#666666"
     borderopacity="1"
     objecttolerance="10"
     gridtolerance="10"
     guidetolerance="10"
     inkscape:pageopacity="0"
     inkscape:pageshadow="2"
     inkscape:window-width="640"
     inkscape:window-height="480"
     id="namedview4"
     showgrid="false"
     inkscape:zoom="0.66461538"
     inkscape:cx="243.75"
     inkscape:cy="109.375"
     inkscape:window-x="65"
     inkscape:window-y="24"
     inkscape:window-maximized="0"
     inkscape:current-layer="g10" /><g
     id="g10"
     inkscape:groupmode="layer"
     inkscape:label="logo"
     transform="matrix(1.25,0,0,-1.25,0,218.75)"><g
       id="g12"><g
         id="g14"
         clip-path="url(#clipPath16)"><g
           id="g20"
           transform="translate(39.0928,67.9746)"><path
             d="m 0,0 -21.41,0 0,-7.911 19.582,0 c 2.859,0 4.81,-0.498 5.853,-1.494 1.043,-0.996 1.565,-2.901 1.565,-5.713 l 0,-3.656 c 0,-2.813 -0.51,-4.717 -1.529,-5.713 -1.02,-0.996 -2.983,-1.494 -5.889,-1.494 l -18.563,0 c -2.906,0 -4.88,0.498 -5.923,1.494 -1.043,0.996 -1.565,2.9 -1.565,5.713 l 0,0.843 5.274,1.09 0,-4.535 23.027,0 0,8.578 -19.652,0 c -2.883,0 -4.84,0.498 -5.872,1.494 -1.031,0.996 -1.546,2.901 -1.546,5.713 l 0,2.883 c 0,2.79 0.515,4.694 1.546,5.714 1.032,1.019 2.989,1.529 5.872,1.529 l 16.98,0 C 0.586,4.535 2.543,4.043 3.621,3.059 4.699,2.074 5.238,0.34 5.238,-2.145 l 0,-0.739 L 0,-4.009 0,0 z"
             style="fill:#110f0d;fill-opacity:1;fill-rule:nonzero;stroke:none"
             id="path22" /></g><g
           id="g24"
           transform="translate(86.1729,67.9746)"><path
             d="m 0,0 -21.305,0 0,-21.376 21.305,0 0,7.277 5.766,-1.089 0,-3.586 c 0,-2.789 -0.522,-4.688 -1.565,-5.696 -1.043,-1.008 -3.017,-1.511 -5.924,-1.511 l -17.929,0 c -2.907,0 -4.869,0.486 -5.889,1.459 -1.02,0.972 -1.529,2.888 -1.529,5.748 l 0,16.066 c 0,2.837 0.515,4.753 1.547,5.749 1.031,0.996 2.988,1.494 5.871,1.494 l 17.929,0 c 2.907,0 4.881,-0.51 5.924,-1.529 1.043,-1.02 1.565,-2.924 1.565,-5.714 l 0,-2.883 L 0,-6.54 0,0 z"
             style="fill:#110f0d;fill-opacity:1;fill-rule:nonzero;stroke:none"
             id="path26" /></g><path
           d="m 111.597,41.993 -5.73,0 0,30.446 5.73,0 0,-30.446 z"
           style="fill:#110f0d;fill-opacity:1;fill-rule:nonzero;stroke:none"
           id="path28" /><path
           d="m 190.44,41.993 -5.73,0 0,30.446 5.73,0 0,-30.446 z"
           style="fill:#110f0d;fill-opacity:1;fill-rule:nonzero;stroke:none"
           id="path30" /><g
           id="g32"
           transform="translate(220.8916,67.9746)"><path
             d="m 0,0 0,-25.981 -5.73,0 0,25.981 -14.415,0 0,4.535 34.629,0 L 14.484,0 0,0 z"
             style="fill:#110f0d;fill-opacity:1;fill-rule:nonzero;stroke:none"
             id="path34" /></g><path
           d="m 242.8,63.825 15.68,0 0,-5.273 -15.68,0 0,5.273 z"
           style="fill:#110f0d;fill-opacity:1;fill-rule:nonzero;stroke:none"
           id="path36" /><g
           id="g38"
           transform="translate(296.8525,55.2471)"><path
             d="m 0,0 -16.629,0 0,-7.77 16.629,0 c 1.406,0 2.361,0.2 2.865,0.598 0.504,0.399 0.756,1.102 0.756,2.109 l 0,2.321 c 0,1.008 -0.252,1.717 -0.756,2.127 C 2.361,-0.205 1.406,0 0,0 m 0,12.235 -16.629,0 0,-7.208 16.629,0 c 1.289,0 2.168,0.164 2.637,0.493 0.468,0.328 0.703,0.89 0.703,1.687 l 0,2.883 c 0,0.798 -0.229,1.354 -0.686,1.671 C 2.197,12.077 1.313,12.235 0,12.235 m -23.941,-25.489 0,30.446 27.351,0 c 2.555,0 4.395,-0.463 5.52,-1.388 1.125,-0.926 1.687,-2.432 1.687,-4.518 l 0,-3.657 c 0,-1.383 -0.445,-2.52 -1.336,-3.41 C 8.391,3.328 7.102,2.73 5.414,2.426 7.125,2.145 8.455,1.494 9.404,0.475 c 0.95,-1.02 1.424,-2.303 1.424,-3.85 l 0,-3.902 c 0,-1.993 -0.785,-3.487 -2.355,-4.483 -1.571,-0.996 -3.938,-1.494 -7.102,-1.494 l -25.312,0 z"
             style="fill:#43bc7d;fill-opacity:1;fill-rule:nonzero;stroke:none"
             id="path40" /></g><path
           d="m 322.394,72.439 7.383,0 0,-30.446 -7.383,0 0,30.446 z"
           style="fill:#43bc7d;fill-opacity:1;fill-rule:nonzero;stroke:none"
           id="path42" /><path
           d="m 352.183,47.829 24.539,0 0,19.021 -24.539,0 0,-19.021 z m -7.418,17.438 c 0,2.766 0.539,4.653 1.617,5.661 1.078,1.008 3.176,1.511 6.293,1.511 l 23.554,0 c 3.141,0 5.25,-0.503 6.317,-1.511 1.066,-1.008 1.594,-2.895 1.594,-5.661 l 0,-16.067 c 0,-2.789 -0.539,-4.687 -1.629,-5.695 -1.09,-1.008 -3.188,-1.512 -6.282,-1.512 l -23.554,0 c -3.117,0 -5.215,0.504 -6.293,1.512 -1.078,1.008 -1.617,2.906 -1.617,5.695 l 0,16.067 z"
           style="fill:#43bc7d;fill-opacity:1;fill-rule:nonzero;stroke:none"
           id="path44" /><g
           id="g46"
           transform="translate(131.9814,103.0708)"><path
             d="m 0,0 c -1.029,-22.833 3.514,-45.326 3.631,-68.121 0.014,-2.55 8.375,-0.968 8.359,2.241 C 11.875,-43.482 7.342,-21.361 8.354,1.069 8.506,4.465 0.125,2.73 0,0"
             style="fill:#778e83;fill-opacity:1;fill-rule:nonzero;stroke:none"
             id="path48" /></g><g
           id="g50"
           transform="translate(143.9814,45.5576)"><path
             d="m 0,0 c 11.68,8.213 18.27,19.783 25.232,31.911 2.397,4.173 -6.113,4.452 -8.033,1.11 C 10.869,21.998 5,11.539 -5.613,4.076 -10.254,0.813 -3.494,-2.457 0,0"
             style="fill:#778e83;fill-opacity:1;fill-rule:nonzero;stroke:none"
             id="path52" /></g><g
           id="g54"
           transform="translate(138.6885,43.7627)"><path
             d="m 0,0 c 3.75,0.387 9.623,-5.463 12.449,-7.592 3.766,-2.834 7.356,-5.9 10.91,-8.99 7.207,-6.262 14.143,-12.828 21.414,-19.02 2.159,-1.837 9.915,1.385 7.782,3.202 C 43.48,-24.674 34.883,-16.408 25.732,-8.771 18.938,-3.102 10.674,5.348 1.211,4.371 -2.76,3.963 -5.814,-0.6 0,0"
             style="fill:#778e83;fill-opacity:1;fill-rule:nonzero;stroke:none"
             id="path56" /></g><g
           id="g58"
           transform="translate(43.2412,149.915)"><path
             d="m 0,0 8.549,0 c 2.83,0 4.84,0.434 6.023,1.295 1.19,0.861 1.782,2.074 1.782,3.633 0,1.136 -0.346,2.103 -1.049,2.912 -0.698,0.803 -1.617,1.336 -2.76,1.594 -0.738,0.158 -2.098,0.24 -4.084,0.24 L 0,9.674 0,0 z m -4.377,-14.191 0,27.058 12.475,0 c 2.197,0 3.873,-0.088 5.033,-0.258 1.623,-0.222 2.982,-0.644 4.084,-1.265 1.096,-0.621 1.98,-1.494 2.648,-2.614 0.668,-1.119 1.002,-2.349 1.002,-3.691 0,-2.297 -0.89,-4.248 -2.683,-5.842 -1.787,-1.593 -5.022,-2.39 -9.698,-2.39 l -8.484,0 0,-10.998 -4.377,0 z"
             style="fill:#a5a7a9;fill-opacity:1;fill-rule:nonzero;stroke:none"
             id="path60" /></g><g
           id="g62"
           transform="translate(73.0889,148.8486)"><path
             d="m 0,0 c 0,-3.264 1.072,-5.83 3.217,-7.705 2.144,-1.881 4.828,-2.818 8.062,-2.818 3.293,0 6.006,0.949 8.133,2.841 2.127,1.899 3.193,4.582 3.193,8.069 0,2.203 -0.457,4.125 -1.365,5.765 -0.908,1.647 -2.244,2.918 -3.996,3.821 -1.752,0.908 -3.715,1.359 -5.894,1.359 -3.1,0 -5.766,-0.873 -7.998,-2.613 C 1.119,6.979 0,4.072 0,0 m -4.512,0.053 c 0,4.494 1.477,8.01 4.424,10.547 2.947,2.543 6.75,3.814 11.414,3.814 3.053,0 5.807,-0.598 8.256,-1.793 2.449,-1.189 4.318,-2.859 5.607,-4.992 1.284,-2.133 1.928,-4.553 1.928,-7.26 0,-2.748 -0.679,-5.203 -2.033,-7.365 -1.354,-2.168 -3.27,-3.809 -5.748,-4.922 -2.484,-1.113 -5.162,-1.67 -8.033,-1.67 -3.112,0 -5.895,0.615 -8.344,1.846 -2.455,1.23 -4.313,2.912 -5.572,5.039 -1.266,2.127 -1.899,4.383 -1.899,6.756"
             style="fill:#a5a7a9;fill-opacity:1;fill-rule:nonzero;stroke:none"
             id="path64" /></g><g
           id="g66"
           transform="translate(111.8545,135.7236)"><path
             d="m 0,0 -8.777,27.059 4.488,0 L 0.744,9.322 C 1.283,7.465 1.752,5.619 2.145,3.785 2.982,6.674 3.48,8.344 3.633,8.783 l 6.293,18.276 5.279,0 4.734,-13.694 c 1.19,-3.398 2.045,-6.592 2.573,-9.58 0.422,1.711 0.972,3.674 1.646,5.889 l 5.192,17.385 4.4,0 L 24.68,0 20.461,0 13.488,20.619 c -0.586,1.723 -0.931,2.777 -1.037,3.17 -0.346,-1.242 -0.668,-2.297 -0.967,-3.17 L 4.465,0 0,0 z"
             style="fill:#a5a7a9;fill-opacity:1;fill-rule:nonzero;stroke:none"
             id="path68" /></g><g
           id="g70"
           transform="translate(150.0049,135.7236)"><path
             d="m 0,0 0,27.059 23.912,0 0,-3.194 -19.535,0 0,-8.285 18.293,0 0,-3.176 -18.293,0 0,-9.211 20.303,0 L 24.68,0 0,0 z"
             style="fill:#a5a7a9;fill-opacity:1;fill-rule:nonzero;stroke:none"
             id="path72" /></g><g
           id="g74"
           transform="translate(185.4072,150.8408)"><path
             d="m 0,0 9.404,0 c 2.004,0 3.569,0.17 4.694,0.504 1.131,0.34 1.986,0.885 2.572,1.629 0.586,0.744 0.879,1.553 0.879,2.426 0,1.277 -0.569,2.332 -1.705,3.158 -1.131,0.82 -2.93,1.236 -5.379,1.236 L 0,8.953 0,0 z m -4.377,-15.117 0,27.058 14.66,0 c 2.947,0 5.192,-0.246 6.727,-0.732 1.529,-0.486 2.76,-1.342 3.674,-2.572 0.92,-1.231 1.377,-2.59 1.377,-4.078 0,-1.922 -0.762,-3.539 -2.28,-4.858 -1.517,-1.312 -3.861,-2.15 -7.037,-2.508 1.16,-0.457 2.039,-0.902 2.637,-1.347 1.283,-0.961 2.49,-2.157 3.633,-3.598 l 5.754,-7.365 -5.502,0 -4.377,5.631 c -1.278,1.623 -2.332,2.865 -3.159,3.726 -0.826,0.862 -1.57,1.465 -2.22,1.811 -0.656,0.345 -1.324,0.58 -1.998,0.72 C 7.014,-3.146 6.199,-3.1 5.074,-3.1 l -5.074,0 0,-12.017 -4.377,0 z"
             style="fill:#a5a7a9;fill-opacity:1;fill-rule:nonzero;stroke:none"
             id="path76" /></g><g
           id="g78"
           transform="translate(214.6455,135.7236)"><path
             d="m 0,0 0,27.059 23.912,0 0,-3.194 -19.535,0 0,-8.285 18.293,0 0,-3.176 -18.293,0 0,-9.211 20.303,0 L 24.68,0 0,0 z"
             style="fill:#a5a7a9;fill-opacity:1;fill-rule:nonzero;stroke:none"
             id="path80" /></g><g
           id="g82"
           transform="translate(249.9775,138.917)"><path
             d="m 0,0 7.061,0 c 2.179,0 3.89,0.164 5.132,0.498 1.243,0.334 2.233,0.797 2.965,1.4 1.037,0.85 1.846,1.993 2.426,3.428 0.58,1.43 0.873,3.17 0.873,5.215 0,2.83 -0.568,5.004 -1.705,6.522 -1.137,1.517 -2.514,2.537 -4.143,3.052 -1.171,0.369 -3.058,0.557 -5.66,0.557 L 0,20.672 0,0 z m -4.377,-3.193 0,27.058 11.397,0 c 2.566,0 4.529,-0.129 5.882,-0.386 1.899,-0.358 3.516,-1.002 4.852,-1.94 1.746,-1.207 3.053,-2.748 3.914,-4.623 0.867,-1.875 1.301,-4.02 1.301,-6.434 0,-2.056 -0.299,-3.873 -0.885,-5.461 C 21.498,3.434 20.748,2.121 19.828,1.078 18.914,0.041 17.906,-0.779 16.816,-1.377 15.727,-1.975 14.414,-2.426 12.873,-2.73 11.332,-3.041 9.557,-3.193 7.559,-3.193 l -11.936,0 z"
             style="fill:#a5a7a9;fill-opacity:1;fill-rule:nonzero;stroke:none"
             id="path84" /></g><g
           id="g86"
           transform="translate(296.4541,138.917)"><path
             d="m 0,0 8.238,0 c 1.412,0 2.403,0.041 2.977,0.129 1.008,0.146 1.851,0.392 2.525,0.738 0.68,0.346 1.231,0.844 1.67,1.506 0.434,0.656 0.656,1.418 0.656,2.279 0,1.008 -0.316,1.887 -0.949,2.631 -0.633,0.744 -1.506,1.266 -2.631,1.565 -1.119,0.304 -2.73,0.457 -4.834,0.457 L 0,9.305 0,0 z m 0,12.498 7.154,0 c 1.94,0 3.328,0.1 4.172,0.311 1.113,0.269 1.951,0.72 2.514,1.347 0.568,0.627 0.849,1.412 0.849,2.362 0,0.896 -0.263,1.687 -0.791,2.373 -0.527,0.685 -1.277,1.148 -2.255,1.4 -0.979,0.252 -2.655,0.381 -5.034,0.381 l -6.609,0 0,-8.174 z m -4.371,-15.691 0,27.058 12.404,0 c 2.526,0 4.553,-0.275 6.082,-0.82 1.524,-0.551 2.719,-1.395 3.586,-2.531 0.862,-1.137 1.295,-2.326 1.295,-3.569 0,-1.16 -0.381,-2.25 -1.148,-3.269 -0.768,-1.02 -1.928,-1.846 -3.475,-2.473 1.998,-0.48 3.539,-1.301 4.611,-2.455 1.079,-1.154 1.612,-2.519 1.612,-4.096 0,-1.271 -0.323,-2.449 -0.979,-3.533 C 18.961,0.029 18.152,-0.814 17.191,-1.4 16.23,-1.992 15.023,-2.438 13.57,-2.742 12.117,-3.041 10.342,-3.193 8.238,-3.193 l -12.609,0 z"
             style="fill:#a5a7a9;fill-opacity:1;fill-rule:nonzero;stroke:none"
             id="path88" /></g><g
           id="g90"
           transform="translate(332.624,135.7236)"><path
             d="m 0,0 0,11.461 -12.744,15.598 5.326,0 6.516,-8.157 c 1.207,-1.529 2.326,-3.052 3.363,-4.582 0.99,1.418 2.197,3.012 3.609,4.782 l 6.405,7.957 5.097,0 L 4.377,11.461 4.377,0 0,0 z"
             style="fill:#a5a7a9;fill-opacity:1;fill-rule:nonzero;stroke:none"
             id="path92" /></g><g
           id="g94"
           transform="translate(6.3506,118.7959)"><path
             d="m 0,0 c 15.52,0.338 31.041,0.484 46.563,0.731 l 46.562,0.417 c 15.52,0.181 31.041,0.147 46.561,0.215 l 46.562,0.135 46.563,-0.133 C 248.332,1.294 263.852,1.336 279.373,1.154 L 325.936,0.735 C 341.457,0.486 356.977,0.34 372.498,0 356.977,-0.34 341.457,-0.486 325.936,-0.735 l -46.563,-0.419 c -15.521,-0.182 -31.041,-0.14 -46.562,-0.211 l -46.563,-0.133 -46.562,0.135 c -15.52,0.068 -31.041,0.034 -46.561,0.215 L 46.563,-0.731 C 31.041,-0.484 15.52,-0.338 0,0"
             style="fill:#515257;fill-opacity:1;fill-rule:nonzero;stroke:none"
             id="path96" /></g></g></g></g></svg>