<?xml version="1.0" encoding="UTF-8" standalone="no"?>
<!-- Created with Inkscape (http://www.inkscape.org/) -->

<svg
   xmlns:dc="http://purl.org/dc/elements/1.1/"
   xmlns:cc="http://creativecommons.org/ns#"
   xmlns:rdf="http://www.w3.org/1999/02/22-rdf-syntax-ns#"
   xmlns:svg="http://www.w3.org/2000/svg"
   xmlns="http://www.w3.org/2000/svg"
   xmlns:sodipodi="http://sodipodi.sourceforge.net/DTD/sodipodi-0.dtd"
   xmlns:inkscape="http://www.inkscape.org/namespaces/inkscape"
   id="svg2"
   version="1.1"
   inkscape:version="0.48.4 r9939"
   width="812.5"
   height="137.5"
   xml:space="preserve"
   sodipodi:docname="logo.pdf"><metadata
     id="metadata8"><rdf:RDF><cc:Work
         rdf:about=""><dc:format>image/svg+xml</dc:format><dc:type
           rdf:resource="http://purl.org/dc/dcmitype/StillImage" /><dc:title></dc:title></cc:Work></rdf:RDF></metadata><defs
     id="defs6"><clipPath
       clipPathUnits="userSpaceOnUse"
       id="clipPath16"><path
         d="M 0,110 650,110 650,0 0,0 0,110 z"
         id="path18" /></clipPath></defs><sodipodi:namedview
     pagecolor="#ffffff"
     bordercolor="#666666"
     borderopacity="1"
     objecttolerance="10"
     gridtolerance="10"
     guidetolerance="10"
     inkscape:pageopacity="0"
     inkscape:pageshadow="2"
     inkscape:window-width="640"
     inkscape:window-height="480"
     id="namedview4"
     showgrid="false"
     inkscape:zoom="0.39876923"
     inkscape:cx="406.25"
     inkscape:cy="68.75"
     inkscape:window-x="65"
     inkscape:window-y="24"
     inkscape:window-maximized="0"
     inkscape:current-layer="g10" /><g
     id="g10"
     inkscape:groupmode="layer"
     inkscape:label="logo"
     transform="matrix(1.25,0,0,-1.25,0,137.5)"><g
       id="g12"><g
         id="g14"
         clip-path="url(#clipPath16)"><g
           id="g20"
           transform="translate(292.2666,65.0918)"><path
             d="m 0,0 -21.41,0 0,-7.91 19.582,0 c 2.859,0 4.81,-0.498 5.853,-1.494 1.043,-0.996 1.565,-2.901 1.565,-5.713 l 0,-3.656 c 0,-2.813 -0.51,-4.717 -1.529,-5.713 -1.02,-0.996 -2.983,-1.494 -5.889,-1.494 l -18.563,0 c -2.906,0 -4.88,0.498 -5.923,1.494 -1.043,0.996 -1.565,2.9 -1.565,5.713 l 0,0.843 5.274,1.09 0,-4.535 23.027,0 0,8.578 -19.652,0 c -2.883,0 -4.84,0.498 -5.872,1.494 -1.031,0.996 -1.546,2.901 -1.546,5.713 l 0,2.883 c 0,2.789 0.515,4.693 1.546,5.713 1.032,1.019 2.989,1.529 5.872,1.529 l 16.98,0 C 0.586,4.535 2.543,4.043 3.621,3.059 4.699,2.074 5.238,0.34 5.238,-2.145 l 0,-0.738 L 0,-4.008 0,0 z"
             style="fill:#110f0d;fill-opacity:1;fill-rule:nonzero;stroke:none"
             id="path22" /></g><g
           id="g24"
           transform="translate(339.3467,65.0918)"><path
             d="m 0,0 -21.305,0 0,-21.375 21.305,0 0,7.277 5.766,-1.09 0,-3.585 c 0,-2.79 -0.522,-4.688 -1.565,-5.696 -1.043,-1.008 -3.017,-1.511 -5.924,-1.511 l -17.929,0 c -2.907,0 -4.869,0.486 -5.889,1.459 -1.02,0.972 -1.529,2.888 -1.529,5.748 l 0,16.066 c 0,2.836 0.515,4.752 1.547,5.748 1.031,0.996 2.988,1.494 5.871,1.494 l 17.929,0 c 2.907,0 4.881,-0.51 5.924,-1.529 1.043,-1.02 1.565,-2.924 1.565,-5.713 l 0,-2.883 L 0,-6.539 0,0 z"
             style="fill:#110f0d;fill-opacity:1;fill-rule:nonzero;stroke:none"
             id="path26" /></g><path
           d="m 364.771,39.111 -5.73,0 0,30.445 5.73,0 0,-30.445 z"
           style="fill:#110f0d;fill-opacity:1;fill-rule:nonzero;stroke:none"
           id="path28" /><path
           d="m 443.614,39.111 -5.73,0 0,30.445 5.73,0 0,-30.445 z"
           style="fill:#110f0d;fill-opacity:1;fill-rule:nonzero;stroke:none"
           id="path30" /><g
           id="g32"
           transform="translate(474.0654,65.0918)"><path
             d="m 0,0 0,-25.98 -5.73,0 0,25.98 -14.415,0 0,4.535 34.629,0 L 14.484,0 0,0 z"
             style="fill:#110f0d;fill-opacity:1;fill-rule:nonzero;stroke:none"
             id="path34" /></g><path
           d="m 495.974,60.943 15.68,0 0,-5.273 -15.68,0 0,5.273 z"
           style="fill:#110f0d;fill-opacity:1;fill-rule:nonzero;stroke:none"
           id="path36" /><g
           id="g38"
           transform="translate(550.0264,52.3652)"><path
             d="m 0,0 -16.629,0 0,-7.77 16.629,0 c 1.406,0 2.361,0.2 2.865,0.598 0.504,0.399 0.756,1.102 0.756,2.109 l 0,2.321 c 0,1.008 -0.252,1.717 -0.756,2.127 C 2.361,-0.205 1.406,0 0,0 m 0,12.234 -16.629,0 0,-7.207 16.629,0 c 1.289,0 2.168,0.164 2.637,0.493 0.468,0.328 0.703,0.89 0.703,1.687 l 0,2.883 c 0,0.797 -0.229,1.353 -0.686,1.67 C 2.197,12.076 1.313,12.234 0,12.234 m -23.941,-25.488 0,30.445 27.351,0 c 2.555,0 4.395,-0.462 5.52,-1.388 1.125,-0.926 1.687,-2.432 1.687,-4.518 l 0,-3.656 c 0,-1.383 -0.445,-2.52 -1.336,-3.41 C 8.391,3.328 7.102,2.73 5.414,2.426 7.125,2.145 8.455,1.494 9.404,0.475 c 0.95,-1.02 1.424,-2.303 1.424,-3.85 l 0,-3.902 c 0,-1.993 -0.785,-3.487 -2.355,-4.483 -1.571,-0.996 -3.938,-1.494 -7.102,-1.494 l -25.312,0 z"
             style="fill:#43bc7d;fill-opacity:1;fill-rule:nonzero;stroke:none"
             id="path40" /></g><path
           d="m 575.567,69.557 7.383,0 0,-30.445 -7.383,0 0,30.445 z"
           style="fill:#43bc7d;fill-opacity:1;fill-rule:nonzero;stroke:none"
           id="path42" /><path
           d="m 605.356,44.947 24.539,0 0,19.02 -24.539,0 0,-19.02 z m -7.418,17.438 c 0,2.765 0.54,4.652 1.618,5.66 1.078,1.008 3.175,1.512 6.293,1.512 l 23.554,0 c 3.141,0 5.25,-0.504 6.317,-1.512 1.066,-1.008 1.593,-2.895 1.593,-5.66 l 0,-16.067 c 0,-2.789 -0.539,-4.687 -1.628,-5.695 -1.09,-1.008 -3.188,-1.512 -6.282,-1.512 l -23.554,0 c -3.118,0 -5.215,0.504 -6.293,1.512 -1.078,1.008 -1.618,2.906 -1.618,5.695 l 0,16.067 z"
           style="fill:#43bc7d;fill-opacity:1;fill-rule:nonzero;stroke:none"
           id="path44" /><g
           id="g46"
           transform="translate(385.1572,100.188)"><path
             d="m 0,0 c -1.031,-22.833 3.512,-45.326 3.629,-68.121 0.014,-2.55 8.376,-0.968 8.359,2.241 C 11.873,-43.482 7.34,-21.361 8.352,1.069 8.505,4.465 0.123,2.73 0,0"
             style="fill:#778e83;fill-opacity:1;fill-rule:nonzero;stroke:none"
             id="path48" /></g><g
           id="g50"
           transform="translate(397.1553,42.6694)"><path
             d="M 0,0 C 11.679,8.217 18.269,19.788 25.233,31.917 27.63,36.09 19.119,36.368 17.2,33.026 10.87,22.001 4.998,11.543 -5.613,4.075 -10.252,0.812 -3.493,-2.458 0,0"
             style="fill:#778e83;fill-opacity:1;fill-rule:nonzero;stroke:none"
             id="path52" /></g><g
           id="g54"
           transform="translate(391.8623,40.8809)"><path
             d="m 0,0 c 3.749,0.386 9.625,-5.464 12.45,-7.592 3.765,-2.836 7.355,-5.903 10.91,-8.993 7.206,-6.263 14.142,-12.828 21.413,-19.018 2.16,-1.837 9.915,1.386 7.782,3.202 C 43.479,-24.677 34.883,-16.41 25.732,-8.773 18.938,-3.104 10.673,5.345 1.211,4.371 -2.76,3.962 -5.813,-0.599 0,0"
             style="fill:#778e83;fill-opacity:1;fill-rule:nonzero;stroke:none"
             id="path56" /></g><g
           id="g58"
           transform="translate(13.4189,47.918)"><path
             d="m 0,0 c 0,-2.162 0.539,-3.756 1.605,-4.793 1.073,-1.031 2.368,-1.547 3.891,-1.547 1.547,0 2.871,0.533 3.973,1.606 1.101,1.072 1.652,2.73 1.652,4.974 0,2.139 -0.539,3.744 -1.617,4.811 C 8.432,6.117 7.143,6.645 5.648,6.645 4.166,6.645 2.854,6.082 1.711,4.945 0.574,3.814 0,2.162 0,0 m -3.146,-14.742 0,23.238 3.169,0 0,-2.18 c 0.745,0.856 1.588,1.495 2.532,1.922 0.943,0.428 2.08,0.639 3.422,0.639 1.752,0 3.298,-0.369 4.64,-1.107 1.342,-0.739 2.356,-1.782 3.035,-3.124 0.686,-1.347 1.026,-2.818 1.026,-4.423 0,-1.717 -0.375,-3.264 -1.131,-4.641 C 12.791,-5.795 11.695,-6.85 10.26,-7.582 8.824,-8.314 7.313,-8.684 5.725,-8.684 c -1.161,0 -2.198,0.2 -3.123,0.604 -0.92,0.398 -1.676,0.908 -2.274,1.517 l 0,-8.179 -3.474,0 z"
             style="fill:#a5a7a9;fill-opacity:1;fill-rule:nonzero;stroke:none"
             id="path60" /></g><g
           id="g62"
           transform="translate(34.1787,48.0176)"><path
             d="m 0,0 c 0,-2.156 0.574,-3.762 1.723,-4.834 1.142,-1.072 2.59,-1.605 4.33,-1.605 1.728,0 3.164,0.539 4.312,1.611 1.143,1.078 1.717,2.719 1.717,4.922 0,2.074 -0.574,3.65 -1.728,4.722 -1.155,1.073 -2.59,1.606 -4.301,1.606 -1.74,0 -3.188,-0.533 -4.33,-1.6 C 0.574,3.756 0,2.15 0,0 m -3.58,0 c 0,3.111 1.06,5.414 3.176,6.914 1.763,1.242 3.914,1.863 6.457,1.863 2.824,0 5.127,-0.756 6.92,-2.267 1.793,-1.518 2.689,-3.604 2.689,-6.276 0,-2.162 -0.398,-3.861 -1.189,-5.103 C 13.682,-6.105 12.527,-7.066 11.01,-7.752 9.498,-8.438 7.846,-8.783 6.053,-8.783 3.176,-8.783 0.855,-8.027 -0.92,-6.521 -2.689,-5.01 -3.58,-2.842 -3.58,0"
             style="fill:#a5a7a9;fill-opacity:1;fill-rule:nonzero;stroke:none"
             id="path64" /></g><g
           id="g66"
           transform="translate(57.3174,39.6152)"><path
             d="m 0,0 -6.281,16.799 3.597,0 L 0.58,7.102 1.799,3.498 c 0.053,0.176 0.41,1.33 1.066,3.463 l 3.264,9.838 3.58,0 3.076,-9.744 1.026,-3.211 1.177,3.246 3.516,9.709 3.387,0 L 15.469,0 11.854,0 8.59,10.061 7.793,12.926 3.639,0 0,0 z"
             style="fill:#a5a7a9;fill-opacity:1;fill-rule:nonzero;stroke:none"
             id="path68" /></g><g
           id="g70"
           transform="translate(84.3584,49.6289)"><path
             d="M 0,0 11.467,0 C 11.314,1.412 10.875,2.473 10.154,3.182 9.047,4.277 7.605,4.828 5.842,4.828 4.242,4.828 2.9,4.389 1.811,3.51 0.721,2.637 0.117,1.465 0,0 m 11.432,-4.605 3.591,-0.364 c -0.562,-1.717 -1.617,-3.052 -3.146,-4.002 -1.535,-0.949 -3.498,-1.424 -5.883,-1.424 -3,0 -5.385,0.756 -7.142,2.274 -1.758,1.512 -2.637,3.633 -2.637,6.363 0,2.83 0.885,5.022 2.666,6.586 1.781,1.559 4.084,2.338 6.92,2.338 2.748,0 4.992,-0.762 6.732,-2.291 1.74,-1.529 2.608,-3.686 2.608,-6.457 0,-0.17 -0.006,-0.422 -0.018,-0.762 l -15.316,0 c 0.129,-1.845 0.767,-3.258 1.916,-4.236 1.148,-0.984 2.578,-1.471 4.295,-1.471 1.271,0 2.361,0.276 3.263,0.821 0.903,0.55 1.617,1.423 2.151,2.625"
             style="fill:#a5a7a9;fill-opacity:1;fill-rule:nonzero;stroke:none"
             id="path72" /></g><g
           id="g74"
           transform="translate(103.3252,39.6152)"><path
             d="m 0,0 0,16.799 3.135,0 0,-2.543 c 0.797,1.189 1.535,1.974 2.209,2.355 0.679,0.381 1.424,0.569 2.238,0.569 1.172,0 2.361,-0.305 3.574,-0.914 L 9.955,13.623 c -0.85,0.41 -1.699,0.615 -2.549,0.615 -0.761,0 -1.447,-0.187 -2.051,-0.562 C 4.752,13.301 4.318,12.785 4.061,12.117 3.674,11.104 3.48,9.996 3.48,8.795 L 3.48,0 0,0 z"
             style="fill:#a5a7a9;fill-opacity:1;fill-rule:nonzero;stroke:none"
             id="path76" /></g><g
           id="g78"
           transform="translate(118.7822,49.6289)"><path
             d="M 0,0 11.467,0 C 11.314,1.412 10.875,2.473 10.154,3.182 9.047,4.277 7.605,4.828 5.842,4.828 4.242,4.828 2.9,4.389 1.811,3.51 0.721,2.637 0.117,1.465 0,0 m 11.432,-4.605 3.591,-0.364 c -0.562,-1.717 -1.617,-3.052 -3.146,-4.002 -1.535,-0.949 -3.498,-1.424 -5.883,-1.424 -3,0 -5.385,0.756 -7.142,2.274 -1.758,1.512 -2.637,3.633 -2.637,6.363 0,2.83 0.885,5.022 2.666,6.586 1.781,1.559 4.084,2.338 6.92,2.338 2.748,0 4.992,-0.762 6.732,-2.291 1.74,-1.529 2.608,-3.686 2.608,-6.457 0,-0.17 -0.006,-0.422 -0.018,-0.762 l -15.316,0 c 0.129,-1.845 0.767,-3.258 1.916,-4.236 1.148,-0.984 2.578,-1.471 4.295,-1.471 1.271,0 2.361,0.276 3.263,0.821 0.903,0.55 1.617,1.423 2.151,2.625"
             style="fill:#a5a7a9;fill-opacity:1;fill-rule:nonzero;stroke:none"
             id="path80" /></g><g
           id="g82"
           transform="translate(140.1045,48)"><path
             d="m 0,0 c 0,-2.15 0.551,-3.762 1.658,-4.828 1.108,-1.061 2.42,-1.594 3.926,-1.594 1.523,0 2.812,0.51 3.879,1.524 1.06,1.019 1.594,2.572 1.594,4.658 0,2.303 -0.539,3.99 -1.623,5.062 C 8.35,5.9 7.014,6.439 5.432,6.439 3.885,6.439 2.59,5.924 1.553,4.887 0.516,3.855 0,2.227 0,0 m 10.998,-8.385 0,2.121 c -1.301,-1.67 -3.217,-2.502 -5.742,-2.502 -1.635,0 -3.141,0.37 -4.512,1.108 -1.377,0.738 -2.437,1.769 -3.193,3.094 C -3.205,-3.24 -3.58,-1.717 -3.58,0 c 0,1.676 0.34,3.199 1.025,4.564 0.68,1.366 1.705,2.415 3.076,3.141 1.366,0.727 2.889,1.09 4.583,1.09 1.236,0 2.337,-0.211 3.304,-0.639 0.967,-0.427 1.752,-0.984 2.362,-1.67 l 0,8.321 3.457,0 0,-23.192 -3.229,0 z"
             style="fill:#a5a7a9;fill-opacity:1;fill-rule:nonzero;stroke:none"
             id="path84" /></g><g
           id="g86"
           transform="translate(173.1924,48.1406)"><path
             d="m 0,0 c 0,-2.016 0.334,-3.469 1.002,-4.365 1.096,-1.465 2.578,-2.198 4.447,-2.198 1.524,0 2.836,0.54 3.949,1.624 1.108,1.078 1.659,2.689 1.659,4.828 0,2.197 -0.528,3.814 -1.594,4.857 C 8.402,5.789 7.113,6.316 5.607,6.316 4.084,6.316 2.771,5.771 1.664,4.693 0.551,3.609 0,2.045 0,0 m 0.035,-8.525 -3.228,0 0,23.191 3.48,0 0,-8.273 c 1.471,1.505 3.346,2.261 5.631,2.261 1.26,0 2.455,-0.205 3.586,-0.621 1.125,-0.422 2.057,-1.002 2.783,-1.758 0.727,-0.755 1.295,-1.664 1.711,-2.73 0.41,-1.066 0.621,-2.203 0.621,-3.416 0,-2.883 -0.873,-5.104 -2.613,-6.68 -1.74,-1.57 -3.826,-2.355 -6.264,-2.355 -2.426,0 -4.324,0.826 -5.707,2.484 l 0,-2.103 z"
             style="fill:#a5a7a9;fill-opacity:1;fill-rule:nonzero;stroke:none"
             id="path88" /></g><g
           id="g90"
           transform="translate(191.4971,33.1465)"><path
             d="M 0,0 -0.387,2.672 C 0.375,2.502 1.037,2.42 1.605,2.42 2.379,2.42 3,2.525 3.463,2.736 3.926,2.947 4.307,3.24 4.605,3.621 4.822,3.908 5.174,4.611 5.666,5.742 5.73,5.9 5.836,6.129 5.977,6.439 l -7.793,16.829 3.75,0 4.271,-9.727 C 6.762,12.305 7.26,11.01 7.699,9.65 c 0.399,1.307 0.873,2.584 1.43,3.827 l 4.389,9.791 3.48,0 L 9.188,6.182 C 8.35,4.336 7.699,3.07 7.23,2.373 6.615,1.436 5.906,0.744 5.104,0.305 4.307,-0.129 3.352,-0.352 2.244,-0.352 1.57,-0.352 0.826,-0.234 0,0"
             style="fill:#a5a7a9;fill-opacity:1;fill-rule:nonzero;stroke:none"
             id="path92" /></g><g
           id="g94"
           transform="translate(236.3447,-0.8613)"><path
             d="m 0,0 c -0.621,7.82 -0.945,15.641 -1.166,23.461 -0.139,3.91 -0.169,7.82 -0.25,11.73 l -0.083,11.731 0.079,11.73 c 0.083,3.911 0.109,7.821 0.249,11.731 0.22,7.82 0.547,15.64 1.171,23.461 0.624,-7.821 0.951,-15.641 1.171,-23.461 0.14,-3.91 0.166,-7.82 0.249,-11.731 L 1.499,46.922 1.416,35.191 C 1.335,31.281 1.305,27.371 1.166,23.461 0.945,15.641 0.621,7.82 0,0"
             style="fill:#515257;fill-opacity:1;fill-rule:nonzero;stroke:none"
             id="path96" /></g></g></g></g></svg>